<?xml version="1.0" encoding="utf-8"?>
<!DOCTYPE svg PUBLIC "-//W3C//DTD SVG 1.0//EN" "http://www.w3.org/TR/2001/REC-SVG-20010904/DTD/svg10.dtd">
<svg version="1.0" xmlns="http://www.w3.org/2000/svg" width="300px" height="150px" viewBox="0 0 300 150" preserveAspectRatio="xMidYMid meet">
 <g fill="#c00000">
  <path d="M148 108 c-5.1 -2.4 -10.5 -7.2 -12.6 -11.3 -2.6 -4.8 -3.5 -12.7 -2.3 -18.5 2 -9.6 10 -15.2 21.8 -15.2 l5.1 0 0 -5.5 0 -5.5 -20.5 0 -20.5 0 0 28 0 28 -6 0 -6 0 0 -28 0 -28 -8 0 -8 0 0 28 0 28 -6 0 -6 0 0 -15.5 0 -15.5 -9.5 0 -9.5 0 0 3.6 c0 7.5 -3.8 9.4 -10.1 5.1 -6.1 -4.1 -10 -14.2 -6.7 -17.5 0.8 -0.8 6.4 -1.2 18.5 -1.2 l17.3 0 0 -7.5 0 -7.5 -22 0 -22 0 0 -5 0 -5 116 0 116 0 0 5 0 5 -18.5 0 -18.5 0 0 5.4 0 5.4 3.7 -1.9 c8.5 -4.3 18.6 -1.1 23 7.6 2.4 4.6 1.9 12.8 -1.1 17.9 -2.7 4.7 -11 12.6 -13.2 12.6 -0.7 0 -2.4 -1.9 -3.8 -4.2 -2.4 -4 -2.5 -4.4 -0.8 -5.6 4.6 -3.3 8.2 -7.7 8.8 -10.7 1.8 -9.5 -8.2 -11.2 -14 -2.4 -2.5 3.7 -2.6 4.5 -2.6 17.9 l0 14 -5.5 0 -5.5 0 0 -6.6 c0 -6.4 -0.1 -6.6 -2.2 -5.9 -1.3 0.3 -4.4 0.9 -6.9 1.2 -10.4 1.2 -21 -9.5 -20.9 -21.1 0 -3.9 3 -10.5 6.1 -13.3 5.1 -4.6 12.9 -5.6 19.1 -2.4 2.1 1 4 1.6 4.3 1.3 0.3 -0.3 0.5 -2.5 0.5 -4.9 l0 -4.3 -23.5 0 -23.5 0 0 10.4 0 10.4 -11 0.4 c-10.2 0.3 -11.1 0.5 -13.6 2.9 -3.7 3.7 -4.2 9.5 -1.5 15.2 4 8.3 12 9.7 23.9 4.2 3 -1.4 5.6 -2.5 5.8 -2.5 0.2 0 0.4 2.7 0.4 6.1 l0 6 -4.7 2.2 c-6.9 3.1 -17.4 3.4 -23.3 0.7z m67.5 -24.3 c1.7 -1.4 2.8 -3.6 3.2 -6.3 0.5 -3.6 0.2 -4.3 -2.3 -6.3 -3.7 -2.9 -6.9 -3.6 -10.5 -2.1 -8.1 3.4 -4.8 17 4.2 17 1.5 0 4 -1 5.4 -2.3z"/>
 </g>
</svg>